<svg version="1.1" xmlns="http://www.w3.org/2000/svg" xmlns:xlink="http://www.w3.org/1999/xlink" width="39.19688" height="40.36525" viewBox="0,0,39.19688,40.36525"><g transform="translate(-220.40156,-159.81737)"><g data-paper-data="{&quot;isPaintingLayer&quot;:true}" fill="none" fill-rule="nonzero" stroke-width="3" stroke-linejoin="miter" stroke-miterlimit="10" stroke-dasharray="" stroke-dashoffset="0" style="mix-blend-mode: normal"><g stroke-opacity="0.06223" stroke="#232323"><path d="M253.08949,177.62531c0,9.00663 -6.98166,16.30793 -15.59397,16.30793c-8.61231,0 -15.59397,-7.30131 -15.59397,-16.30793c0,-9.00663 6.98166,-16.30794 15.59397,-16.30794c8.61231,0 15.59397,7.30131 15.59397,16.30794z" stroke-linecap="butt"/><path d="M249.86481,189.59134l8.23363,9.09129" stroke-linecap="round"/></g><g stroke="#fff5ef"><path d="M252.77505,177.63624c0,8.74169 -6.77629,15.82823 -15.13526,15.82823c-8.35897,0 -15.13526,-7.08653 -15.13526,-15.82823c0,-8.74169 6.77629,-15.82823 15.13526,-15.82823c8.35897,0 15.13526,7.08654 15.13526,15.82823z" stroke-linecap="butt"/><path d="M249.64522,189.25028l7.99143,8.82386" stroke-linecap="round"/></g></g></g></svg>